# xmcd
#
# Track frame offsets:
#	150
#	36842
#	58537
#	80205
#	87930
#	107905
#	120270
#	137977
#	153635
#	175910
#	193595
#	210750
#	227522
#	245542
#	265612
#
# Disc length: 3751 seconds
#
# Revision: 1
# Processed by: cddbd v1.5.2PL0 Copyright (c) Steve Scherf et al.
# Submitted via: audiograbber 1.83.01
#
DISCID=c50ea50f
DTITLE=Various (Instrumental) - The Look Of Love: Music For Your Wedding
DYEAR=1993
DGENRE=
TTITLE0=Wagner: Bridal Chorus From "Lohengrin"
TTITLE1=Mendelssohn: Wedding March From "A Midsummer Night's Dream"
TTITLE2=Pachelbel: Canon In D Major
TTITLE3=Mouret: Fanfare (Masterpiece Theater Theme)
TTITLE4=Schubert: Ava Maria
TTITLE5=J. Clarke: Trumpet Voluntary
TTITLE6=Purcell: Tune In D Major
TTITLE7=Malotte: The Lord's Prayer
TTITLE8=Forever In Love (Kenny G)
TTITLE9=Save The Best For Last
TTITLE10=The Wedding Song
TTITLE11=Wind Beneath My Wings (Bette Midler)
TTITLE12=Unchained Melody (Righteous Brothers)
TTITLE13=(Everything I Do) I Do It For You (Bryan Adams)
TTITLE14=Endless Love (Lionel Richie)
EXTD=
EXTT0=
EXTT1=
EXTT2=
EXTT3=
EXTT4=
EXTT5=
EXTT6=
EXTT7=
EXTT8=
EXTT9=
EXTT10=
EXTT11=
EXTT12=
EXTT13=
EXTT14=
PLAYORDER=
